<?xml version="1.0" encoding="utf-8"?>
<!-- Generator: Adobe Illustrator 25.2.0, SVG Export Plug-In . SVG Version: 6.00 Build 0)  -->
<svg version="1.1" id="Ebene_2" xmlns="http://www.w3.org/2000/svg" xmlns:xlink="http://www.w3.org/1999/xlink" x="0px" y="0px"
	 width="12px" height="12px" viewBox="0 0 12 12" style="enable-background:new 0 0 12 12;" xml:space="preserve">
<style type="text/css">
	.st0{fill:#FAA307;}
	.st1{fill:#FFD100;}
	.st2{fill:#FFFFFF;}
</style>
<g id="Color">
	<path class="st0" d="M10.0855865,1.4480802L9.5337934,0.4924251C9.4322309,0.3165621,9.2073689,0.2562718,9.0314484,0.3577354
		l-8.6004829,4.965517c-0.175842,0.1015334-0.2360809,0.3263903-0.1345475,0.5022326
		c0.0000215,0.0000377,0.0000431,0.0000744,0.0000647,0.0001121l0.5517931,0.9556551
		c0.6564036-0.3866382,1.501956-0.1679497,1.8885942,0.4884543c0.3866377,0.6564031,0.1679494,1.501956-0.4884543,1.8885937
		c-0.0068853,0.004055-0.0138059,0.0080519-0.0207605,0.0119867l0.4597242,0.7963448
		c0.1523857,0.2638807,0.4898245,0.3542843,0.7537241,0.201931l8.2816544-4.7815862
		c0.2638817-0.1523857,0.3542852-0.4898243,0.201932-0.7537241l-0.4599314-0.7961378
		c-0.6597137,0.3808479-1.5032558,0.1547825-1.8841038-0.504931S9.4258728,1.8289281,10.0855865,1.4480802L10.0855865,1.4480802z"/>
	<path class="st1" d="M12,6.9329081V5.6915283c0-0.2285314-0.1852617-0.4137931-0.4137936-0.4137931H0.4137931
		C0.1852615,5.2777352,0,5.462997,0,5.6915283v1.2413797c0.8569936,0,1.5517242,0.6947303,1.5517242,1.5517235
		S0.8569936,10.036356,0,10.036356v1.034483c0,0.3427973,0.2778922,0.6206894,0.6206896,0.6206894h10.7586212
		C11.7221079,11.6915283,12,11.4136362,12,11.0708389v-1.034483c-0.8569937,0-1.5517244-0.6947308-1.5517244-1.5517244
		S11.1430063,6.9329081,12,6.9329081z"/>
	<circle class="st2" cx="6.4137931" cy="7.3467011" r="0.6206896"/>
	<circle class="st2" cx="8.8965521" cy="9.8294592" r="0.6206896"/>
	<path class="st2" d="M6.1034484,10.1398048C5.933075,9.9693708,5.9331236,9.6930933,6.1035566,9.5227203
		C6.1041398,9.5221367,6.1047239,9.5215559,6.10531,9.520977l2.4986901-2.4668279
		c0.1643829-0.1587605,0.426343-0.1542034,0.585103,0.0101795c0.1548681,0.1603532,0.1548681,0.4145703,0,0.5749235
		l-2.4668269,2.4986901c-0.169405,0.1713963-0.4456787,0.1730099-0.617074,0.0036058
		C6.1046157,10.1409674,6.1040316,10.1403866,6.1034484,10.1398048z"/>
	<path class="st2" d="M4.1379309,6.1053219c0.1142659,0,0.2068968-0.0926309,0.2068968-0.2068968V5.2777352H3.9310346v0.6206899
		C3.9310346,6.012691,4.0236654,6.1053219,4.1379309,6.1053219z"/>
	<path class="st2" d="M4.1379309,8.1742868c0.1142659,0,0.2068968-0.0926304,0.2068968-0.2068963V6.9329081
		c0-0.1142659-0.0926309-0.2068968-0.2068968-0.2068968c-0.1142654,0-0.2068963,0.0926309-0.2068963,0.2068968v1.0344825
		C3.9310346,8.0816565,4.0236654,8.1742868,4.1379309,8.1742868z"/>
	<path class="st2" d="M4.1379309,10.2432528c0.1142659,0,0.2068968-0.0926313,0.2068968-0.2068968V9.001873
		c0-0.1142654-0.0926309-0.2068958-0.2068968-0.2068958c-0.1142654,0-0.2068963,0.0926304-0.2068963,0.2068958v1.034483
		C3.9310346,10.1506214,4.0236654,10.2432528,4.1379309,10.2432528z"/>
	<path class="st2" d="M4.1379309,10.8639421c-0.1142654,0-0.2068963,0.0926313-0.2068963,0.2068968v0.6206894h0.4137931v-0.6206894
		C4.3448277,10.9565735,4.2521968,10.8639421,4.1379309,10.8639421z"/>
</g>
</svg>
